<svg width="152" height="166" viewBox="0 0 152 166" fill="none" xmlns="http://www.w3.org/2000/svg">
<path fill-rule="evenodd" clip-rule="evenodd" d="M76 166C117.974 166 152 129.511 152 84.5C152 39.4888 117.974 3 76 3C34.0264 3 0 39.4888 0 84.5C0 129.511 34.0264 166 76 166ZM75.5 147C105.047 147 129 119.018 129 84.5C129 49.9822 105.047 22 75.5 22C45.9528 22 22 49.9822 22 84.5C22 119.018 45.9528 147 75.5 147Z" fill="#C4C4C4"/>
<path d="M74.816 136.44C61.952 136.44 52.16 132.984 45.44 126.072C38.816 119.16 35.264 109.608 34.784 97.416C34.688 94.824 34.64 90.6 34.64 84.744C34.64 78.792 34.688 74.472 34.784 71.784C35.264 59.688 38.864 50.184 45.584 43.272C52.304 36.264 62.048 32.76 74.816 32.76C83.36 32.76 90.608 34.296 96.56 37.368C102.512 40.344 107.024 44.28 110.096 49.176C113.168 54.072 114.848 59.304 115.136 64.872V65.16C115.136 65.928 114.8 66.6 114.128 67.176C113.552 67.656 112.88 67.896 112.112 67.896H104.192C102.272 67.896 101.072 66.792 100.592 64.584C98.96 57.384 96.032 52.344 91.808 49.464C87.584 46.488 81.92 45 74.816 45C58.304 45 49.76 54.168 49.184 72.504C49.088 75.096 49.04 79.08 49.04 84.456C49.04 89.832 49.088 93.912 49.184 96.696C49.76 115.032 58.304 124.2 74.816 124.2C81.92 124.2 87.584 122.76 91.808 119.88C96.128 116.904 99.056 111.816 100.592 104.616C100.88 103.368 101.312 102.504 101.888 102.024C102.464 101.544 103.232 101.304 104.192 101.304H112.112C112.976 101.304 113.696 101.592 114.272 102.168C114.944 102.648 115.232 103.32 115.136 104.184C114.848 109.848 113.168 115.128 110.096 120.024C107.024 124.92 102.512 128.904 96.56 131.976C90.608 134.952 83.36 136.44 74.816 136.44Z" fill="#C4C4C4"/>
<path d="M56.56 107C56.2187 107 55.92 106.872 55.664 106.616C55.408 106.36 55.28 106.061 55.28 105.72C55.28 105.379 55.3013 105.144 55.344 105.016L71.216 63.608C71.5573 62.6693 72.24 62.2 73.264 62.2H77.616C78.64 62.2 79.3227 62.6693 79.664 63.608L95.472 105.016L95.6 105.72C95.6 106.061 95.472 106.36 95.216 106.616C94.96 106.872 94.6613 107 94.32 107H91.056C90.5867 107 90.224 106.893 89.968 106.68C89.712 106.424 89.5413 106.168 89.456 105.912L85.936 96.824H64.944L61.424 105.912C61.3387 106.168 61.1467 106.424 60.848 106.68C60.592 106.893 60.2507 107 59.824 107H56.56ZM84.08 91.32L75.44 68.6L66.8 91.32H84.08Z" fill="#C4C4C4"/>
</svg>
